<?xml version="1.0" encoding="UTF-8" standalone="no"?><!-- Generator: Gravit.io --><svg xmlns="http://www.w3.org/2000/svg" xmlns:xlink="http://www.w3.org/1999/xlink" style="isolation:isolate" viewBox="0 0 540.1 226.1" width="540.1pt" height="226.1pt"><g><g><path d=" M 284.9 88.1 C 283.6 95.4 278.2 99.5 267.7 99.5 C 254.8 99.5 247.7 91.5 247.1 77.3 L 301.9 77.3 L 301.9 72.3 C 301.9 45.6 285.2 34.5 266.6 34.5 C 247.7 34.5 233 46.7 230 65.7 L 239.4 65.7 L 241.2 65.7 L 247.4 65.7 C 249.1 54.1 256.1 47.1 266.6 47.1 C 277.3 47.1 283.9 52.8 284.8 65.7 L 247.5 65.7 C 246.7 71.3 247.2 77.3 247.2 77.3 L 241.2 77.3 L 235.8 77.3 L 229.5 77.3 C 230.8 99.1 246.2 112.3 267.3 112.3 C 286.5 112.3 299.2 103.7 301.6 88 L 284.9 88 L 284.9 88.1 Z " fill="rgb(51,51,51)"/><path d=" M 457.6 34.6 C 438.7 34.6 424 46.8 421 65.8 L 430.4 65.8 L 432.2 65.8 L 438.4 65.8 C 440.1 54.2 447.1 47.2 457.6 47.2 C 468.3 47.2 474.9 52.9 475.8 65.8 L 438.5 65.8 C 437.7 71.4 438.2 77.4 438.2 77.4 L 432.2 77.4 L 426.8 77.4 L 420.5 77.4 C 421.8 99.2 437.2 112.4 458.3 112.4 C 477.5 112.4 490.2 103.8 492.6 88.1 L 475.9 88.1 C 474.6 95.4 469.2 99.5 458.7 99.5 C 445.8 99.5 438.7 91.5 438.1 77.3 L 492.9 77.3 L 492.9 72.3 C 492.9 45.6 476.2 34.6 457.6 34.6 Z " fill="rgb(51,51,51)"/><path d=" M 38.3 187 C 25.7 187 17.7 178.5 17.7 162.3 L 17.7 161.2 C 17.7 145.9 26.1 136.8 37.8 136.8 C 46.9 136.8 53.4 140.9 54.8 150.8 L 71.4 150.8 C 69.4 130.4 54 123 37.5 123 C 16.8 123 0 137.9 0 161.4 L 0 162.5 C 0 186.2 16.2 200.1 37.5 200.1 C 57.6 200.1 70.6 188 71.8 171 L 56.1 171 C 55.1 181.6 47.3 187 38.3 187 Z " fill="rgb(51,51,51)"/><path d=" M 198.7 172.8 C 198.7 182.3 190.9 187.8 180.4 187.8 C 171.9 187.8 168.5 183.7 168.5 177.4 C 168.5 168.3 176.9 165.3 189.9 165.3 L 198.7 165.3 L 198.7 172.8 Z  M 186.2 123 C 169.6 123 155.8 130.2 154.4 147.5 L 171 147.5 C 171.8 140.1 176.2 135.9 185.2 135.9 C 195.3 135.9 198.7 140.9 198.7 150.8 L 198.7 154.6 L 189.5 154.6 C 168.2 154.6 151.5 160.8 151.5 178.1 C 151.5 193.6 162.7 200.1 176.3 200.1 C 187.6 200.1 194.2 196 199 189.6 L 199 198.7 L 215.9 198.7 L 215.9 150 C 215.9 129.8 202.8 123 186.2 123 Z " fill="rgb(51,51,51)"/><path d=" M 266.2 123 C 254 123 245.8 129.1 242.2 136.3 L 242.2 124.5 L 225.1 124.5 L 225.1 198.7 L 242.3 198.7 L 242.3 155 C 242.3 143.2 250.1 137.3 259.7 137.3 C 269.9 137.3 274.5 142.4 274.5 153.6 L 274.5 198.7 L 291.7 198.7 L 291.7 152 C 291.6 131.7 281.1 123 266.2 123 Z " fill="rgb(51,51,51)"/><path d=" M 356.6 159.9 C 356.6 174.1 347.9 182.6 336 182.6 C 324.9 182.6 316.4 174.1 316.4 160.3 L 316.4 159.2 C 316.4 145.7 323.8 136.5 336.5 136.5 C 348.8 136.5 356.5 144.9 356.5 158.9 L 356.5 159.9 L 356.6 159.9 Z  M 356 135.9 C 351.7 128.5 344.4 123 332.2 123 C 313 123 298.9 138.6 298.9 159.5 L 298.9 160.5 C 298.9 181.9 313.2 195.8 331.8 195.8 C 342.7 195.8 351.9 189.1 356.1 182 L 356.1 193 C 356.1 206.3 348.7 213 335.4 213 C 324.2 213 318.5 208.7 317.1 201.4 L 299.8 201.4 C 301.8 215.6 312.3 226.1 335.6 226.1 C 358.6 226.1 373.2 215.2 373.3 193.3 L 373.3 124.6 L 356.1 124.6 L 356.1 135.9 L 356 135.9 Z " fill="rgb(51,51,51)"/><path d=" M 398 153.9 C 399.7 142.4 406.7 135.5 417 135.5 C 427.6 135.5 434.2 141.2 435 153.9 L 398 153.9 Z  M 417 123 C 395.9 123 380.1 138.3 380.1 161.3 L 380.1 162.4 C 380.1 185.8 395.8 200.1 417.7 200.1 C 436.7 200.1 449.3 191.6 451.7 176 L 435.1 176 C 433.8 183.2 428.4 187.4 418.1 187.4 C 405.3 187.4 398.2 179.5 397.7 165.4 L 452.1 165.4 L 452.1 160.4 C 452.1 133.9 435.5 123 417 123 Z " fill="rgb(51,51,51)"/><path d=" M 180.9 83.1 L 165.1 83.1 C 164.1 93.7 156.2 99.1 147.1 99.1 C 134.4 99.1 126.4 90.5 126.4 74.2 L 126.4 73.1 C 126.4 57.7 134.8 48.5 146.7 48.5 C 155.9 48.5 162.4 52.6 163.9 62.7 L 180.6 62.7 C 178.6 42.1 163 34.7 146.4 34.7 C 125.5 34.7 108.6 49.7 108.6 73.5 L 108.6 74.6 C 108.6 98.5 124.9 112.5 146.4 112.5 C 166.6 112.4 179.6 100.3 180.9 83.1 Z " fill="rgb(51,51,51)"/><path d=" M 355.8 84.8 C 355.8 94.4 347.9 100 337.3 100 C 328.7 100 325.3 95.9 325.3 89.6 C 325.3 80.4 333.7 77.4 346.9 77.4 L 355.8 77.4 L 355.8 84.8 Z  M 346.6 66.5 C 325.1 66.5 308.3 72.8 308.3 90.2 C 308.3 105.8 319.6 112.4 333.3 112.4 C 344.7 112.4 351.3 108.3 356.2 101.8 L 356.2 111 L 373.2 111 L 373.2 61.9 C 373.2 41.4 360 34.6 343.3 34.6 C 326.6 34.6 312.7 41.9 311.3 59.3 L 328 59.3 C 328.9 51.9 333.3 47.6 342.3 47.6 C 352.5 47.6 355.9 52.6 355.9 62.6 L 355.9 66.5 L 346.6 66.5 L 346.6 66.5 Z " fill="rgb(51,51,51)"/><path d=" M 535.2 0 L 493.6 132.2 L 498.5 132.2 L 540.1 0 L 535.2 0 Z " fill="rgb(64,242,242)"/><g><path d=" M 405 112.3 C 410.3 112.3 414 111.4 416.7 110.4 L 416.7 96.7 C 414.3 97.7 411.7 98.1 408.3 98.1 C 402.9 98.1 399.7 95.1 399.7 88.5 L 399.7 49.2 L 416.1 49.2 L 416.1 36.2 L 399.7 36.2 L 399.7 19.8 L 382.4 19.8 L 382.4 29.4 L 382.4 36.2 L 382.4 49.2 L 382.4 62 L 382.4 90.1 C 382.4 104.3 390.1 112.3 405 112.3 Z " fill="rgb(51,51,51)"/></g><path d=" M 535.2 0 L 493.6 132.2 L 498.5 132.2 L 540.1 0 L 535.2 0 Z " fill="rgb(64,242,242)"/><g><path d=" M 88.3 161 L 78.1 171.1 L 78.1 171.1 L 88.3 161 Z " fill="rgb(51,51,51)"/><path d=" M 119.1 123 C 106.9 123 98.7 129.1 95.2 136.3 L 95.2 90.2 L 78.1 90.2 L 78.1 140 L 78.1 143.9 L 78.1 150.9 L 78.1 150.9 L 88.2 161 L 78.1 171.1 L 78.1 171.1 L 78.1 178.1 L 78.1 184.9 L 78.1 198.8 L 95.2 198.8 L 95.2 184.9 L 95.2 155.1 C 95.2 143.3 103 137.4 112.6 137.4 C 122.8 137.4 127.3 142.5 127.3 153.7 L 127.3 198.8 L 144.4 198.8 L 144.4 152.1 C 144.5 131.7 134 123 119.1 123 Z " fill="rgb(51,51,51)"/><path d=" M 78.1 171.1 L 78.1 171.1 L 78.1 171.1 L 78.1 171.1 Z " fill="rgb(51,51,51)"/></g><path d=" M 205.2 36.3 L 187.9 48.4 L 187.9 111 L 205.2 111 L 205.2 49.3 L 229.5 49.3 L 229.5 48.4 L 229.5 43.3 L 229.5 36.3 L 205.2 36.3 Z " fill="rgb(51,51,51)"/></g></g></svg>